<mxfile host="app.diagrams.net" modified="2022-02-22T13:32:16.446Z" agent="5.0 (Windows NT 10.0; Win64; x64) AppleWebKit/537.36 (KHTML, like Gecko) Chrome/98.0.4758.102 Safari/537.36" etag="ZzdyHBL0ar_rFZkI9ZFo" version="16.6.2" type="github">
  <diagram id="fc3AbD8IK7LIVQpSny3R" name="Page-1">
    <mxGraphModel dx="1038" dy="538" grid="1" gridSize="10" guides="1" tooltips="1" connect="1" arrows="1" fold="1" page="1" pageScale="1" pageWidth="827" pageHeight="1169" math="0" shadow="0">
      <root>
        <mxCell id="0" />
        <mxCell id="1" parent="0" />
        <mxCell id="z7uOj2U8no2l1bYLRqGu-3" value="" style="edgeStyle=orthogonalEdgeStyle;rounded=0;orthogonalLoop=1;jettySize=auto;html=1;" edge="1" parent="1" source="z7uOj2U8no2l1bYLRqGu-1" target="z7uOj2U8no2l1bYLRqGu-2">
          <mxGeometry relative="1" as="geometry" />
        </mxCell>
        <mxCell id="z7uOj2U8no2l1bYLRqGu-1" value="图片" style="rounded=0;whiteSpace=wrap;html=1;" vertex="1" parent="1">
          <mxGeometry x="130" y="170" width="60" height="60" as="geometry" />
        </mxCell>
        <mxCell id="z7uOj2U8no2l1bYLRqGu-5" value="" style="edgeStyle=orthogonalEdgeStyle;rounded=0;orthogonalLoop=1;jettySize=auto;html=1;" edge="1" parent="1" source="z7uOj2U8no2l1bYLRqGu-2" target="z7uOj2U8no2l1bYLRqGu-4">
          <mxGeometry relative="1" as="geometry" />
        </mxCell>
        <mxCell id="z7uOj2U8no2l1bYLRqGu-2" value="resnet" style="rounded=0;whiteSpace=wrap;html=1;" vertex="1" parent="1">
          <mxGeometry x="260" y="170" width="60" height="60" as="geometry" />
        </mxCell>
        <mxCell id="z7uOj2U8no2l1bYLRqGu-7" value="" style="edgeStyle=orthogonalEdgeStyle;rounded=0;orthogonalLoop=1;jettySize=auto;html=1;" edge="1" parent="1" source="z7uOj2U8no2l1bYLRqGu-4" target="z7uOj2U8no2l1bYLRqGu-6">
          <mxGeometry relative="1" as="geometry" />
        </mxCell>
        <mxCell id="z7uOj2U8no2l1bYLRqGu-4" value="fpn" style="rounded=0;whiteSpace=wrap;html=1;" vertex="1" parent="1">
          <mxGeometry x="380" y="170" width="60" height="60" as="geometry" />
        </mxCell>
        <mxCell id="z7uOj2U8no2l1bYLRqGu-9" value="" style="edgeStyle=orthogonalEdgeStyle;rounded=0;orthogonalLoop=1;jettySize=auto;html=1;" edge="1" parent="1" source="z7uOj2U8no2l1bYLRqGu-6" target="z7uOj2U8no2l1bYLRqGu-8">
          <mxGeometry relative="1" as="geometry" />
        </mxCell>
        <mxCell id="z7uOj2U8no2l1bYLRqGu-6" value="rpn" style="rounded=0;whiteSpace=wrap;html=1;" vertex="1" parent="1">
          <mxGeometry x="520" y="170" width="60" height="60" as="geometry" />
        </mxCell>
        <mxCell id="z7uOj2U8no2l1bYLRqGu-11" value="" style="edgeStyle=orthogonalEdgeStyle;rounded=0;orthogonalLoop=1;jettySize=auto;html=1;" edge="1" parent="1" source="z7uOj2U8no2l1bYLRqGu-8" target="z7uOj2U8no2l1bYLRqGu-10">
          <mxGeometry relative="1" as="geometry" />
        </mxCell>
        <mxCell id="z7uOj2U8no2l1bYLRqGu-13" value="" style="edgeStyle=orthogonalEdgeStyle;rounded=0;orthogonalLoop=1;jettySize=auto;html=1;" edge="1" parent="1" source="z7uOj2U8no2l1bYLRqGu-8" target="z7uOj2U8no2l1bYLRqGu-12">
          <mxGeometry relative="1" as="geometry" />
        </mxCell>
        <mxCell id="z7uOj2U8no2l1bYLRqGu-8" value="head" style="rounded=0;whiteSpace=wrap;html=1;" vertex="1" parent="1">
          <mxGeometry x="520" y="310" width="60" height="60" as="geometry" />
        </mxCell>
        <mxCell id="z7uOj2U8no2l1bYLRqGu-10" value="class" style="rounded=0;whiteSpace=wrap;html=1;" vertex="1" parent="1">
          <mxGeometry x="380" y="310" width="60" height="60" as="geometry" />
        </mxCell>
        <mxCell id="z7uOj2U8no2l1bYLRqGu-12" value="bbox" style="rounded=0;whiteSpace=wrap;html=1;" vertex="1" parent="1">
          <mxGeometry x="660" y="310" width="60" height="60" as="geometry" />
        </mxCell>
      </root>
    </mxGraphModel>
  </diagram>
</mxfile>
